# xmcd
#
# Track frame offsets: 
#        150
#        14517
#        30253
#        46904
#        56968
#        67848
#        87564
#        106103
#        120870
#        133122
#        147876
#
# Disc length: 2140 seconds
#
# Revision: 0
# Processed by: cddbd v1.5.2PL0 Copyright (c) Steve Scherf et al.
# Submitted via: ExactAudioCopy v1.0b3
#
DISCID=8c085a0b
DTITLE=Johnny Moeller - Bloogaloo!
DYEAR=2010
DGENRE=Blues
TTITLE0=Bloogaloo
TTITLE1=I'm Movin' On Up
TTITLE2=Trick Bag
TTITLE3=Got A Feelin'
TTITLE4=I'm Stuck On You
TTITLE5=Theme From The One Armed Swordsman
TTITLE6=Everybody's Got To Cry Sometime
TTITLE7=Raise Your Hands
TTITLE8=Well Goodbye Baby
TTITLE9=Shufflin' Around
TTITLE10=Tease Me Baby
EXTD=
EXTT0=
EXTT1=
EXTT2=
EXTT3=
EXTT4=
EXTT5=
EXTT6=
EXTT7=
EXTT8=
EXTT9=
EXTT10=
PLAYORDER=
